<svg width="34" height="34" viewBox="0 0 34 34" fill="none" xmlns="http://www.w3.org/2000/svg">
<path d="M5.59766 14.2495V22.8212C7.10169 23.0348 8.00853 23.2261 8.58361 23.3724C9.15867 23.5298 10.0323 23.8224 10.5189 24.0248C11.0055 24.2386 11.7244 24.5872 12.1225 24.8122C12.5206 25.0372 13.2505 25.5209 13.7592 25.9034C14.2569 26.2858 15.0421 26.972 15.4955 27.4333L15.9371 27.8824V11.8756C15.9371 11.5721 15.8416 11.275 15.6519 11.038C15.303 10.6022 14.9484 10.217 14.6218 9.88487C14.0578 9.31116 13.1289 8.53498 12.5096 8.11878C11.9013 7.70257 11.0277 7.19636 10.5742 6.98263C10.1208 6.7689 9.34668 6.46518 8.86008 6.3077C8.37349 6.16146 7.49981 5.94773 6.92475 5.84649C6.34967 5.74524 5.80778 5.6665 5.74142 5.6665C5.63083 5.6665 5.59766 7.45509 5.59766 14.2495Z" fill="#077A5D"/>
<path d="M18.0625 27.9169V11.9015C18.0625 11.5779 18.1733 11.2641 18.3764 11.0122L18.4597 10.9088C18.8911 10.3463 19.5989 9.59264 20.0302 9.22142C20.4504 8.85021 21.2245 8.26525 21.7443 7.92779C22.264 7.59033 23.0272 7.15161 23.4584 6.94913C23.8788 6.74664 24.6528 6.45417 25.1726 6.28543C25.6924 6.12796 26.5108 5.92547 26.9974 5.83549C27.484 5.75673 27.9928 5.68924 28.3798 5.66675V22.8777L27.6831 22.9451C27.3071 22.9788 26.6435 23.0801 26.2232 23.1701C25.792 23.2602 25.0511 23.4626 24.5644 23.6314C24.0778 23.7889 23.3036 24.0926 22.8503 24.3063C22.3968 24.52 21.5231 25.0262 20.915 25.4312C20.3385 25.8221 19.5032 26.5045 18.0625 27.9169Z" fill="#077A5D"/>
<path d="M3.47277 14.2498V24.6659L5.2988 24.9254C6.72809 25.1284 7.55442 25.3045 8.04093 25.4273C8.53991 25.5652 9.2956 25.8196 9.68449 25.9795C10.1309 26.1766 10.7662 26.4868 11.0772 26.6626C11.358 26.8213 11.9475 27.2078 12.3935 27.5362C12.0114 27.4312 11.5883 27.3273 11.2379 27.2535C10.2205 27.0286 9.7781 26.9949 7.699 26.9949C5.61989 27.006 5.16647 27.0398 2.83301 27.5459L2.8883 9.89638L3.4812 9.70996C3.47525 10.895 3.47277 12.3871 3.47277 14.2498Z" fill="#077A5D"/>
<path d="M21.6182 27.5534C21.8139 27.3974 21.9712 27.2825 22.1 27.1948C22.6522 26.8279 23.427 26.3835 23.7559 26.2284C24.1225 26.0557 24.8122 25.7846 25.2185 25.6531L25.2394 25.6463L25.2603 25.6391C25.6613 25.4999 26.3147 25.3217 26.657 25.2503L26.6679 25.2481C27.0103 25.1747 27.5886 25.0873 27.8727 25.0618L30.5045 24.8068V9.75391C30.6807 9.80947 30.8986 9.87852 31.1664 9.96383L31.1443 27.5459L29.8946 27.276C28.8218 27.0397 28.3463 27.006 26.3335 27.006C24.3207 26.9948 23.8564 27.0285 22.85 27.2535C22.4853 27.3303 22.0314 27.4433 21.6182 27.5534Z" fill="#077A5D"/>
</svg>
