<svg width="18" height="18" viewBox="0 0 18 18" fill="none" xmlns="http://www.w3.org/2000/svg">
<path d="M0 1.23624C0 0.553876 0.571269 0 1.27548 0H15.9826C16.6871 0 17.2581 0.553876 17.2581 1.23624V16.022C17.2581 16.7046 16.6871 17.2581 15.9826 17.2581H1.27548C0.571336 17.2581 0 16.7047 0 16.0222V1.23604V1.23624Z" fill="#637381" fill-opacity="0.7"/>
<path d="M5.24474 14.4429V6.67318H2.66223V14.4429H5.24501H5.24474ZM3.95402 5.61254C4.85441 5.61254 5.41496 5.01591 5.41496 4.2703C5.39811 3.50771 4.85441 2.92773 3.97115 2.92773C3.08728 2.92773 2.51001 3.50771 2.51001 4.27024C2.51001 5.01585 3.07036 5.61247 3.9371 5.61247H3.95382L3.95402 5.61254ZM6.67419 14.4429H9.2565V10.1044C9.2565 9.87249 9.27335 9.63998 9.34157 9.47434C9.52818 9.01018 9.95309 8.52972 10.6667 8.52972C11.6009 8.52972 11.9748 9.24216 11.9748 10.2868V14.4429H14.5571V9.98797C14.5571 7.60155 13.2832 6.49102 11.5842 6.49102C10.1912 6.49102 9.57941 7.2696 9.23951 7.79988H9.2567V6.67345H6.67433C6.70803 7.40234 6.67412 14.4432 6.67412 14.4432L6.67419 14.4429Z" fill="white"/>
</svg>
