<svg width="40" height="40" viewBox="0 0 40 40" fill="none" xmlns="http://www.w3.org/2000/svg">
<path d="M39.9723 5.26345C39.1606 6.62349 38.2637 7.9377 37.267 9.16927C35.123 11.8157 32.7327 13.4368 29.538 14.6241C26.8359 15.6274 24.0103 15.9236 21.1863 16.3901C13.7961 17.611 6.19807 21.1437 1.852 27.4283C1.15398 28.4381 0.553338 29.5101 0.000976562 30.6066V35.2555C0.0312542 35.2317 0.0615318 35.2088 0.0926277 35.1859C1.3471 34.2359 2.81025 33.5231 4.33313 33.1131C7.9509 32.1377 11.5998 33.2923 15.2069 33.654C18.1258 33.947 21.2338 33.8398 24.1044 33.2154C30.7107 31.7776 36.2531 27.2794 39.3488 21.3302C39.5763 20.8924 39.7759 20.4399 40.0026 20.0013V5.21436C39.9928 5.23072 39.983 5.24709 39.9732 5.26345H39.9723Z" fill="#0D8E6D"/>
<path d="M39.0843 2.70701C36.5934 4.00158 33.7775 4.55476 30.9871 4.82399C29.0616 5.00974 27.1942 5.03429 25.2646 4.941C24.1255 4.88618 22.9873 4.78307 21.8465 4.72579C17.5545 4.51139 13.102 5.08912 9.27722 7.11854C5.41806 9.16596 2.46803 12.6569 0.64074 16.5881C0.419795 17.0643 0.229946 17.5553 0 18.0275V24.1018C0.262679 23.7426 0.510628 23.3719 0.782308 23.0184C4.47618 18.2173 10.3738 15.3819 16.2656 14.3606C18.3695 13.9965 20.43 13.8983 22.5486 13.7682C27.3071 13.4752 32.1802 12.8107 35.793 9.43355C37.4117 7.92049 38.5974 6.2724 39.8372 4.46884C39.8707 4.41974 39.9051 4.37064 39.9386 4.32154C39.9558 4.29617 39.9705 4.26999 40.0016 4.25771V2.18738C39.7013 2.37314 39.3961 2.5458 39.0851 2.70701H39.0843Z" fill="#0D8E6D"/>
<path d="M39.9454 23.0209C39.0919 24.61 38.272 26.0053 37.1296 27.4119C31.9726 33.7612 23.9482 36.217 15.9279 35.6057C10.8519 35.2186 5.67363 32.8807 1.22937 36.6507C1.07307 36.7833 0.924138 36.924 0.779297 37.0689C1.17536 37.7546 1.70563 38.3528 2.33573 38.8266C3.31443 39.5639 4.53208 40.0001 5.85202 40.0001H34.1469C37.0699 40.0001 39.4929 37.8569 39.9299 35.0566C39.9528 35.0182 39.9765 34.9797 40.0003 34.9412V22.9489C39.9667 22.9611 39.9593 22.9922 39.9446 23.02L39.9454 23.0209Z" fill="#12C295"/>
<path d="M17.5299 2.87065C20.2516 2.72008 22.9455 3.12105 25.655 3.24216C29.6254 3.41892 34.0762 3.15133 37.5999 1.12518C37.9264 0.937788 38.2447 0.734846 38.5549 0.515538C38.7733 0.360876 38.9984 0.193122 39.1817 0H5.60545C5.60545 0 5.59727 0.00409157 5.59318 0.0057282C2.64725 0.133385 0.265952 2.44021 0.0212762 5.35505C0.0147296 5.3665 0.00736483 5.37878 0 5.39023V14.6094L0.399337 13.7493C3.69551 7.00477 10.1045 3.28226 17.5299 2.87065Z" fill="#12C295"/>
</svg>
