<svg width="21" height="13" viewBox="0 0 21 13" fill="none" xmlns="http://www.w3.org/2000/svg">
<path d="M6.66497 0C7.26383 0 7.81047 0.0533311 8.30489 0.158881C8.79931 0.264431 9.22151 0.437756 9.57371 0.678854C9.92592 0.919953 10.1992 1.23994 10.3937 1.63992C10.5881 2.0399 10.6848 2.5332 10.6848 3.12095C10.6848 3.75536 10.5403 4.28422 10.2526 4.70754C9.9648 5.13085 9.53816 5.4775 8.97485 5.74748C9.75037 5.9708 10.3292 6.3619 10.7114 6.91964C11.0936 7.47739 11.2847 8.15069 11.2847 8.93843C11.2847 9.57284 11.1614 10.1228 10.9148 10.5872C10.6681 11.0517 10.3359 11.4305 9.91814 11.7238C9.50038 12.0183 9.02485 12.2349 8.49043 12.376C7.95268 12.5171 7.39827 12.5882 6.84274 12.5871H0.741943V0H6.66497ZM6.31277 5.09418C6.80608 5.09418 7.21161 4.97641 7.52937 4.74198C7.84713 4.50643 8.00601 4.12534 8.0049 3.59648C8.0049 3.30316 7.95157 3.06206 7.84602 2.8743C7.74047 2.68653 7.59937 2.53876 7.42271 2.43321C7.24605 2.32766 7.04384 2.25433 6.81496 2.21322C6.57942 2.17211 6.34054 2.151 6.10056 2.15211H3.51069V5.09641L6.31277 5.09418ZM6.47165 10.435C6.73275 10.4361 6.99273 10.4095 7.24716 10.3561C7.49382 10.3028 7.71158 10.215 7.89935 10.0917C8.08712 9.96838 8.23711 9.80061 8.34933 9.58951C8.46043 9.37841 8.5171 9.10731 8.5171 8.77844C8.5171 8.13291 8.33489 7.67072 7.97046 7.39517C7.60603 7.11852 7.12384 6.98075 6.52498 6.98075H3.51069V10.4361L6.47165 10.435ZM14.7668 10.1706C15.1423 10.535 15.6834 10.7172 16.3889 10.7172C16.8944 10.7172 17.3289 10.5906 17.6933 10.3384C18.0577 10.0861 18.281 9.81838 18.3633 9.53618H20.5665C20.2143 10.6295 19.6732 11.4105 18.9443 11.8805C18.2155 12.3505 17.3344 12.586 16.3 12.586C15.5834 12.586 14.9368 12.4716 14.3612 12.2427C13.7857 12.0138 13.298 11.6872 12.898 11.2639C12.498 10.8406 12.1891 10.3361 11.9725 9.74839C11.7558 9.16064 11.6469 8.51401 11.6469 7.8096C11.6469 7.12852 11.758 6.49411 11.9814 5.90636C12.2047 5.31861 12.5224 4.81086 12.9335 4.382C13.3446 3.95313 13.8357 3.61537 14.4057 3.36872C14.9757 3.12206 15.6078 2.99873 16.3011 2.99873C17.0767 2.99873 17.7522 3.14873 18.3288 3.44871C18.9043 3.7487 19.3777 4.1509 19.7476 4.65643C20.1176 5.16196 20.3854 5.73748 20.5498 6.38412C20.7142 7.03075 20.7731 7.70627 20.7265 8.41179H14.1513C14.1857 9.21953 14.3912 9.80727 14.7668 10.1706ZM17.5966 5.37639C17.2966 5.04752 16.8411 4.88308 16.23 4.88308C15.8301 4.88308 15.4979 4.95086 15.2345 5.08529C14.9701 5.22084 14.759 5.3875 14.6001 5.58749C14.4412 5.78748 14.3301 5.99858 14.2657 6.2219C14.2013 6.44522 14.1624 6.64521 14.1513 6.82076H18.2233C18.1044 6.18746 17.8955 5.70526 17.5966 5.37639ZM13.7224 0.638856H18.8099V2.04989H13.7224V0.638856Z" fill="#0057FF"/>
</svg>
