<svg width="29" height="28" viewBox="0 0 29 28" fill="none" xmlns="http://www.w3.org/2000/svg">
<path d="M21.8705 7.18132C20.5505 6.57566 19.1351 6.12944 17.6551 5.87387C17.6282 5.86894 17.6012 5.88127 17.5873 5.90592C17.4053 6.2297 17.2037 6.65209 17.0625 6.98408C15.4707 6.74578 13.887 6.74578 12.3279 6.98408C12.1867 6.64471 11.9777 6.2297 11.7948 5.90592C11.781 5.88209 11.754 5.86976 11.7271 5.87387C10.248 6.12863 8.83249 6.57485 7.51171 7.18132C7.50027 7.18625 7.49047 7.19448 7.48397 7.20515C4.79913 11.2162 4.06364 15.1287 4.42445 18.9927C4.42608 19.0116 4.43669 19.0297 4.45139 19.0412C6.22277 20.3421 7.93865 21.1318 9.62266 21.6553C9.64962 21.6635 9.67817 21.6536 9.69532 21.6314C10.0937 21.0874 10.4488 20.5138 10.7532 19.9106C10.7712 19.8753 10.7541 19.8334 10.7173 19.8194C10.1541 19.6058 9.61776 19.3453 9.10186 19.0494C9.06105 19.0256 9.05779 18.9672 9.09533 18.9393C9.20389 18.8579 9.31249 18.7733 9.41615 18.6878C9.43491 18.6722 9.46104 18.6689 9.48309 18.6788C12.8724 20.2262 16.5417 20.2262 19.8909 18.6788C19.913 18.6681 19.9391 18.6714 19.9587 18.687C20.0624 18.7725 20.1709 18.8579 20.2803 18.9393C20.3179 18.9672 20.3154 19.0256 20.2746 19.0494C19.7587 19.351 19.2224 19.6058 18.6583 19.8186C18.6216 19.8326 18.6053 19.8753 18.6232 19.9106C18.9342 20.513 19.2893 21.0866 19.6803 21.6306C19.6967 21.6536 19.726 21.6635 19.753 21.6553C21.4452 21.1318 23.161 20.3421 24.9324 19.0412C24.9479 19.0297 24.9577 19.0124 24.9594 18.9935C25.3912 14.5263 24.2361 10.6459 21.8974 7.20597C21.8917 7.19448 21.8819 7.18625 21.8705 7.18132ZM11.2594 16.64C10.239 16.64 9.39818 15.7031 9.39818 14.5527C9.39818 13.4022 10.2227 12.4654 11.2594 12.4654C12.3042 12.4654 13.1369 13.4104 13.1205 14.5527C13.1205 15.7031 12.2961 16.64 11.2594 16.64ZM18.1408 16.64C17.1204 16.64 16.2796 15.7031 16.2796 14.5527C16.2796 13.4022 17.1041 12.4654 18.1408 12.4654C19.1857 12.4654 20.0183 13.4104 20.002 14.5527C20.002 15.7031 19.1857 16.64 18.1408 16.64Z" fill="#5865F2"/>
</svg>
