<svg width="22" height="17" viewBox="0 0 22 17" fill="none" xmlns="http://www.w3.org/2000/svg">
<path d="M17.8705 2.18132C16.5505 1.57566 15.1351 1.12944 13.6551 0.873875C13.6282 0.868942 13.6012 0.881269 13.5873 0.905922C13.4053 1.2297 13.2037 1.65209 13.0625 1.98408C11.4707 1.74578 9.88705 1.74578 8.3279 1.98408C8.18667 1.64471 7.97771 1.2297 7.79485 0.905922C7.78096 0.882091 7.75404 0.869765 7.72709 0.873875C6.24795 1.12863 4.83249 1.57485 3.51171 2.18132C3.50027 2.18625 3.49047 2.19448 3.48397 2.20515C0.799133 6.21624 0.063644 10.1287 0.42445 13.9927C0.426083 14.0116 0.436694 14.0297 0.451388 14.0412C2.22277 15.3421 3.93865 16.1318 5.62266 16.6553C5.64962 16.6635 5.67817 16.6536 5.69532 16.6314C6.09368 16.0874 6.44878 15.5138 6.75324 14.9106C6.77121 14.8753 6.75405 14.8334 6.71733 14.8194C6.15409 14.6058 5.61776 14.3453 5.10186 14.0494C5.06105 14.0256 5.05779 13.9672 5.09533 13.9393C5.20389 13.8579 5.31249 13.7733 5.41615 13.6878C5.43491 13.6722 5.46104 13.6689 5.48309 13.6788C8.87236 15.2262 12.5417 15.2262 15.8909 13.6788C15.913 13.6681 15.9391 13.6714 15.9587 13.687C16.0624 13.7725 16.1709 13.8579 16.2803 13.9393C16.3179 13.9672 16.3154 14.0256 16.2746 14.0494C15.7587 14.351 15.2224 14.6058 14.6583 14.8186C14.6216 14.8326 14.6053 14.8753 14.6232 14.9106C14.9342 15.513 15.2893 16.0866 15.6803 16.6306C15.6967 16.6536 15.726 16.6635 15.753 16.6553C17.4452 16.1318 19.161 15.3421 20.9324 14.0412C20.9479 14.0297 20.9577 14.0124 20.9594 13.9935C21.3912 9.52634 20.2361 5.64593 17.8974 2.20597C17.8917 2.19448 17.8819 2.18625 17.8705 2.18132ZM7.25937 11.64C6.23897 11.64 5.39818 10.7031 5.39818 9.55265C5.39818 8.40216 6.22266 7.46535 7.25937 7.46535C8.30422 7.46535 9.13686 8.41038 9.12053 9.55265C9.12053 10.7031 8.29605 11.64 7.25937 11.64ZM14.1408 11.64C13.1204 11.64 12.2796 10.7031 12.2796 9.55265C12.2796 8.40216 13.1041 7.46535 14.1408 7.46535C15.1857 7.46535 16.0183 8.41038 16.002 9.55265C16.002 10.7031 15.1857 11.64 14.1408 11.64Z" fill="#637381" fill-opacity="0.7"/>
</svg>
