<svg width="18" height="18" viewBox="0 0 18 18" fill="none" xmlns="http://www.w3.org/2000/svg">
<path fill-rule="evenodd" clip-rule="evenodd" d="M8.89515 0C4.1314 0 0.266113 3.86529 0.266113 8.62904C0.266113 13.3928 4.1314 17.2581 8.89515 17.2581C13.6495 17.2581 17.5242 13.3928 17.5242 8.62904C17.5242 3.86529 13.6495 0 8.89515 0ZM14.5948 3.97759C15.6243 5.2317 16.242 6.83209 16.2607 8.56351C16.0174 8.51675 13.584 8.02069 11.132 8.32955C11.0758 8.20788 11.029 8.07683 10.9729 7.94583C10.8231 7.59021 10.6547 7.2252 10.4862 6.87891C13.2003 5.77455 14.4357 4.18349 14.5948 3.97759ZM8.89515 1.27283C10.7669 1.27283 12.4797 1.97476 13.7806 3.12592C13.6495 3.3131 12.5358 4.80119 9.91526 5.78388C8.70795 3.56579 7.36964 1.75014 7.16373 1.46937C7.71588 1.33834 8.29619 1.27283 8.89515 1.27283ZM5.7599 1.9654C5.95642 2.22745 7.26669 4.05246 8.49271 6.22375C5.04858 7.14096 2.0069 7.12224 1.67933 7.12224C2.15664 4.83862 3.70088 2.93874 5.7599 1.9654ZM1.52023 8.63842C1.52023 8.56351 1.52023 8.48865 1.52023 8.4138C1.83843 8.42313 5.41359 8.46994 9.09168 7.36558C9.30697 7.77735 9.5035 8.1985 9.69069 8.61965C9.59707 8.64775 9.49411 8.67585 9.40054 8.70389C5.60077 9.92992 3.57922 13.2805 3.41075 13.5612C2.24087 12.2604 1.52023 10.5289 1.52023 8.63842ZM8.89515 16.004C7.19178 16.004 5.61949 15.4237 4.37473 14.4503C4.50576 14.179 6.00318 11.2964 10.1586 9.84573C10.1773 9.83635 10.1867 9.83635 10.2054 9.82702C11.2442 12.513 11.6654 14.7685 11.7777 15.4143C10.8886 15.798 9.91526 16.004 8.89515 16.004ZM13.0038 14.7405C12.9289 14.2912 12.5358 12.1387 11.5718 9.49005C13.8835 9.12504 15.9051 9.72406 16.1578 9.8083C15.8396 11.8579 14.6603 13.6268 13.0038 14.7405Z" fill="#637381" fill-opacity="0.7"/>
</svg>
