<svg width="16" height="14" viewBox="0 0 16 14" fill="none" xmlns="http://www.w3.org/2000/svg">
<path d="M15.1403 13.1838L15.1402 13.1838L15.1422 13.1854C15.2368 13.2611 15.2596 13.3987 15.1651 13.5168C15.1289 13.562 15.0751 13.5917 15.0004 13.5917C14.9624 13.5917 14.9077 13.5752 14.8544 13.5364L10.6849 10.1658L10.4624 9.98596L10.2509 10.1787C9.18475 11.15 7.83898 11.6917 6.40039 11.6917C4.88906 11.6917 3.47376 11.102 2.41109 10.0394C0.216268 7.84455 0.216268 4.2556 2.41109 2.06078C3.47376 0.998104 4.88906 0.408407 6.40039 0.408407C7.91172 0.408407 9.32702 0.998104 10.3897 2.06078L10.3911 2.06217C12.3945 4.04197 12.5624 7.18178 10.9563 9.37833L10.7693 9.63409L11.0153 9.83383L15.1403 13.1838ZM2.73969 9.71078C3.72662 10.6977 5.01117 11.2334 6.40039 11.2334C7.78581 11.2334 9.09704 10.7003 10.0619 9.70996C12.0927 7.70337 12.0896 4.41788 10.0611 2.38937C9.07416 1.40244 7.78962 0.86674 6.40039 0.86674C5.01152 0.86674 3.72728 1.40216 2.74046 2.3886C0.708123 4.39506 0.710648 7.68174 2.73969 9.71078Z" fill="#13C296" stroke="#13C296" stroke-width="0.666667"/>
</svg>
