<svg width="16" height="15" viewBox="0 0 16 15" fill="none" xmlns="http://www.w3.org/2000/svg">
<path d="M14.0786 14.8749L9.05257 9.8489C8.65368 10.168 8.19495 10.4206 7.6764 10.6068C7.15784 10.7929 6.60605 10.886 6.02101 10.886C4.57171 10.886 3.34526 10.3839 2.34165 9.3798C1.33805 8.37567 0.835981 7.14922 0.83545 5.70045C0.834918 4.25169 1.33699 3.02523 2.34165 2.0211C3.34632 1.01696 4.57277 0.514893 6.02101 0.514893C7.46924 0.514893 8.69596 1.01696 9.70116 2.0211C10.7064 3.02523 11.2082 4.25169 11.2066 5.70045C11.2066 6.28549 11.1135 6.83729 10.9273 7.35584C10.7412 7.8744 10.4886 8.33312 10.1695 8.73201L15.1955 13.758L14.0786 14.8749ZM6.02101 9.29045C7.01823 9.29045 7.866 8.94156 8.56433 8.24377C9.26265 7.54598 9.61154 6.69821 9.61101 5.70045C9.61048 4.7027 9.26158 3.85519 8.56433 3.15793C7.86707 2.46067 7.01929 2.11151 6.02101 2.11045C5.02272 2.10939 4.17522 2.45855 3.47849 3.15793C2.78176 3.85732 2.4326 4.70482 2.43101 5.70045C2.42941 6.69608 2.77857 7.54385 3.47849 8.24377C4.17841 8.94369 5.02591 9.29258 6.02101 9.29045Z" fill="white"/>
</svg>
