<svg width="157" height="40" viewBox="0 0 157 40" fill="none" xmlns="http://www.w3.org/2000/svg">
<path d="M39.9723 5.26345C39.1606 6.62349 38.2637 7.9377 37.267 9.16927C35.123 11.8157 32.7327 13.4368 29.538 14.6241C26.8359 15.6274 24.0103 15.9236 21.1863 16.3901C13.7961 17.611 6.19807 21.1437 1.852 27.4283C1.15398 28.4381 0.553338 29.5101 0.000976562 30.6066V35.2555C0.0312542 35.2317 0.0615318 35.2088 0.0926277 35.1859C1.3471 34.2359 2.81025 33.5231 4.33313 33.1131C7.9509 32.1377 11.5998 33.2923 15.2069 33.654C18.1258 33.947 21.2338 33.8398 24.1044 33.2154C30.7107 31.7776 36.2531 27.2794 39.3488 21.3302C39.5763 20.8924 39.7759 20.4399 40.0026 20.0013V5.21436C39.9928 5.23072 39.983 5.24709 39.9732 5.26345H39.9723Z" fill="#0D8E6D"/>
<path d="M39.0843 2.70701C36.5934 4.00158 33.7775 4.55476 30.9871 4.82399C29.0616 5.00974 27.1942 5.03429 25.2646 4.941C24.1255 4.88618 22.9873 4.78307 21.8465 4.72579C17.5545 4.51139 13.102 5.08912 9.27722 7.11854C5.41806 9.16596 2.46803 12.6569 0.64074 16.5881C0.419795 17.0643 0.229946 17.5553 0 18.0275V24.1018C0.262679 23.7426 0.510628 23.3719 0.782308 23.0184C4.47618 18.2173 10.3738 15.3819 16.2656 14.3606C18.3695 13.9965 20.43 13.8983 22.5486 13.7682C27.3071 13.4752 32.1802 12.8107 35.793 9.43355C37.4117 7.92049 38.5974 6.2724 39.8372 4.46884C39.8707 4.41974 39.9051 4.37064 39.9386 4.32154C39.9558 4.29617 39.9705 4.26999 40.0016 4.25771V2.18738C39.7013 2.37314 39.3961 2.5458 39.0851 2.70701H39.0843Z" fill="#0D8E6D"/>
<path d="M39.9454 23.0209C39.0919 24.61 38.272 26.0053 37.1296 27.4119C31.9726 33.7612 23.9482 36.217 15.9279 35.6057C10.8519 35.2186 5.67363 32.8807 1.22937 36.6507C1.07307 36.7833 0.924138 36.924 0.779297 37.0689C1.17536 37.7546 1.70563 38.3528 2.33573 38.8266C3.31443 39.5639 4.53208 40.0001 5.85202 40.0001H34.1469C37.0699 40.0001 39.4929 37.8569 39.9299 35.0566C39.9528 35.0182 39.9765 34.9797 40.0003 34.9412V22.9489C39.9667 22.9611 39.9593 22.9922 39.9446 23.02L39.9454 23.0209Z" fill="#12C295"/>
<path d="M17.5299 2.87065C20.2516 2.72008 22.9455 3.12105 25.655 3.24216C29.6254 3.41892 34.0762 3.15133 37.5999 1.12518C37.9264 0.937788 38.2447 0.734846 38.5549 0.515538C38.7733 0.360876 38.9984 0.193122 39.1817 0H5.60545C5.60545 0 5.59727 0.00409157 5.59318 0.0057282C2.64725 0.133385 0.265952 2.44021 0.0212762 5.35505C0.0147296 5.3665 0.00736483 5.37878 0 5.39023V14.6094L0.399337 13.7493C3.69551 7.00477 10.1045 3.28226 17.5299 2.87065Z" fill="#12C295"/>
<path d="M55.4205 3.88206C56.1406 4.24867 56.6987 4.76093 57.0964 5.41885C57.4933 6.07678 57.6921 6.84027 57.6921 7.70931V12.5325C57.6921 13.4882 57.4843 14.3237 57.0686 15.0373C56.6529 15.7517 56.0661 16.3008 55.3084 16.6854C54.5506 17.07 53.6693 17.2631 52.6636 17.2631C51.6579 17.2631 50.8109 17.0676 50.0466 16.6764C49.2831 16.2852 48.6874 15.7419 48.2586 15.0471C47.8306 14.3516 47.6162 13.557 47.6162 12.6634C47.6162 11.2976 48.0507 10.224 48.9198 9.44169C49.7888 8.65938 50.9803 8.26822 52.4958 8.26822H54.1161V7.54156C54.1161 7.19378 53.9982 6.91801 53.7626 6.71261C53.5269 6.50803 53.2102 6.40574 52.8125 6.40574C52.477 6.40574 52.198 6.48348 51.9746 6.63814C51.7512 6.79362 51.621 7.00147 51.5834 7.2617H47.9149C47.9394 6.38037 48.1849 5.64471 48.6506 5.0547C49.1162 4.46552 49.7242 4.03018 50.4754 3.75113C51.2266 3.47208 52.0425 3.33215 52.9246 3.33215C53.8681 3.33215 54.6995 3.51546 55.4205 3.88124V3.88206ZM54.1169 11.3778H52.6644C52.2176 11.3778 51.8608 11.4957 51.5932 11.7313C51.3264 11.967 51.1931 12.278 51.1931 12.6626C51.1931 13.0472 51.3264 13.3581 51.5932 13.5938C51.86 13.8295 52.2168 13.9473 52.6644 13.9473C53.112 13.9473 53.4655 13.8017 53.7257 13.5095C53.9868 13.2182 54.1169 12.8238 54.1169 12.3271V11.377V11.3778Z" fill="#12C295"/>
<path d="M69.7397 15.2705C69.162 15.9162 68.4272 16.3851 67.5327 16.6764C66.6391 16.9677 65.7136 17.1142 64.7578 17.1142C63.3921 17.1142 62.2718 16.863 61.3962 16.3597C60.5206 15.8573 59.888 15.1928 59.4969 14.3671C59.1057 13.5415 58.9102 12.6258 58.9102 11.6201V3.77979H62.4117V11.2477C62.4117 12.0922 62.613 12.7411 63.0173 13.1937C63.4207 13.647 64.0009 13.8737 64.7586 13.8737C65.5164 13.8737 66.0966 13.7526 66.5 13.5104C66.9034 13.2681 67.1056 12.9179 67.1056 12.458C67.1056 12.1102 66.9877 11.8369 66.7521 11.6389C66.5164 11.44 66.1866 11.341 65.7652 11.341H64.9084V8.41717H65.802C66.41 8.41717 66.7144 8.20032 66.7144 7.76497C66.7144 7.50393 66.6432 7.29035 66.5 7.1226C66.3568 6.95484 66.1367 6.76581 65.8388 6.55469C65.5532 6.34356 65.3233 6.15453 65.1498 5.98678C64.9755 5.81902 64.8241 5.59317 64.6932 5.30676C64.5631 5.02117 64.4976 4.66766 64.4976 4.24541V3.77979H67.9803V3.85425C67.9803 4.15212 68.0614 4.40089 68.2226 4.59892C68.3838 4.79777 68.6325 5.0269 68.9672 5.28794C69.3641 5.5858 69.6718 5.87794 69.8895 6.16353C70.1063 6.44913 70.2152 6.82146 70.2152 7.28053C70.2152 7.96382 70.0474 8.49409 69.7119 8.87297C69.3764 9.25185 68.8617 9.50962 68.1661 9.64546C68.973 9.86886 69.5818 10.2477 69.9909 10.7813C70.4009 11.3148 70.6055 11.9858 70.6055 12.7927C70.6055 13.7984 70.3166 14.6241 69.7397 15.2697V15.2705Z" fill="#12C295"/>
<path d="M79.7821 4.6644C80.6389 5.45325 81.0668 6.53015 81.0668 7.89592V12.4957C81.0668 13.4146 80.8647 14.2215 80.4613 14.9171C80.0578 15.6126 79.4867 16.1527 78.7477 16.5373C78.0088 16.9219 77.1553 17.115 76.1872 17.115C75.2192 17.115 74.3648 16.9227 73.6267 16.5373C72.8878 16.1527 72.3166 15.6126 71.9132 14.9171C71.5097 14.2215 71.3076 13.4146 71.3076 12.4957V11.1921H74.8092V12.2723C74.8092 12.7567 74.9327 13.1446 75.1815 13.4359C75.4295 13.728 75.765 13.8737 76.1872 13.8737C76.6095 13.8737 76.9442 13.728 77.1929 13.4359C77.4409 13.1446 77.5653 12.7559 77.5653 12.2723V8.3239C77.5653 7.81491 77.4532 7.42048 77.2298 7.14143C77.0064 6.86239 76.6897 6.72246 76.2797 6.72246C75.8697 6.72246 75.553 6.86239 75.3296 7.14143C75.1062 7.42048 74.9941 7.81491 74.9941 8.3239V8.82634H71.4926V7.8951C71.4926 7.02605 71.6914 6.25602 72.0883 5.58582C72.4852 4.91562 73.0473 4.39681 73.774 4.03102C74.5007 3.66524 75.3354 3.48193 76.2789 3.48193C77.7559 3.48193 78.9237 3.87636 79.7804 4.6644H79.7821Z" fill="#12C295"/>
<path d="M91.2476 3.77979V6.85255H87.4302C86.35 6.85255 85.8099 7.15697 85.8099 7.76497V8.30506H87.4113C88.8884 8.30506 90.0528 8.68721 90.9031 9.4507C91.7533 10.2142 92.1788 11.2665 92.1788 12.6078C92.1788 13.4891 91.971 14.2714 91.5553 14.9547C91.1387 15.638 90.5553 16.1682 89.8049 16.5471C89.0537 16.926 88.2002 17.115 87.2444 17.115C86.2886 17.115 85.3852 16.9252 84.6463 16.5471C83.9073 16.1682 83.3361 15.6282 82.9327 14.9269C82.5293 14.2256 82.3271 13.4089 82.3271 12.4776V7.74697C82.3271 6.45567 82.6995 5.47206 83.445 4.79531C84.1896 4.11857 85.2764 3.7806 86.7043 3.7806H91.2484L91.2476 3.77979ZM86.1912 13.4457C86.4457 13.7313 86.7968 13.8737 87.2436 13.8737C87.6904 13.8737 88.0283 13.7591 88.2959 13.5292C88.5627 13.2992 88.6961 12.9924 88.6961 12.6069C88.6961 12.2215 88.5627 11.9179 88.2959 11.6945C88.0292 11.4711 87.6781 11.359 87.2436 11.359H85.8099V12.2903C85.8099 12.7747 85.9367 13.1593 86.192 13.4449L86.1912 13.4457Z" fill="#12C295"/>
<path d="M96.44 12.2723C96.44 12.7567 96.5644 13.1446 96.8124 13.4359C97.0603 13.7281 97.3958 13.8737 97.8181 13.8737C98.2403 13.8737 98.575 13.7281 98.8238 13.4359C99.0717 13.1446 99.1961 12.7559 99.1961 12.2723V11.2298C99.1961 10.7453 99.1274 10.3263 98.9915 9.97282C98.8549 9.61931 98.6814 9.3239 98.4703 9.08822C98.2592 8.85255 97.9793 8.57923 97.6323 8.26909C97.2477 7.92131 96.9343 7.60789 96.6921 7.32885C96.4499 7.0498 96.2477 6.68975 96.0865 6.24867C95.9253 5.80842 95.8443 5.27734 95.8443 4.65624V3.78064H99.3459V4.35837C99.3459 4.75607 99.4482 5.09731 99.6527 5.3829C99.8573 5.66849 100.177 6.00973 100.612 6.40743C101.059 6.8174 101.419 7.18646 101.692 7.51542C101.965 7.84439 102.201 8.27318 102.4 8.80018C102.599 9.32799 102.698 9.95809 102.698 10.6905V12.4973C102.698 13.4163 102.496 14.2231 102.092 14.9187C101.689 15.6143 101.118 16.1544 100.379 16.539C99.6397 16.9236 98.7861 17.1167 97.8181 17.1167C96.85 17.1167 95.9957 16.9244 95.2576 16.539C94.5186 16.1544 93.9475 15.6143 93.544 14.9187C93.1406 14.2231 92.9385 13.4163 92.9385 12.4973V10.8026H96.44V12.2739V12.2723Z" fill="#12C295"/>
<path d="M116.918 8.56607C117.545 8.91385 118.029 9.40157 118.37 10.0284C118.712 10.6552 118.883 11.3786 118.883 12.1977V16.8163H115.381V12.7002C115.381 12.2534 115.279 11.9056 115.074 11.6568C114.87 11.4089 114.574 11.2845 114.19 11.2845C113.805 11.2845 113.51 11.4089 113.305 11.6568C113.1 11.9056 112.998 12.2526 112.998 12.7002V15.2885H109.497V12.7002C109.497 12.2534 109.394 11.9056 109.189 11.6568C108.984 11.4089 108.689 11.2845 108.304 11.2845C107.92 11.2845 107.624 11.4089 107.42 11.6568C107.215 11.9056 107.113 12.2526 107.113 12.7002V16.8163H103.611V9.45967C103.611 8.34185 103.869 7.35496 104.384 6.49819C104.899 5.64141 105.616 4.97449 106.535 4.49577C107.454 4.01788 108.509 3.77893 109.701 3.77893H116.331V6.8517H109.105C108.46 6.8517 107.923 7.02273 107.494 7.36396C107.066 7.7052 106.876 8.125 106.926 8.62089C107.137 8.23629 107.671 8.04316 108.528 8.04316C109.148 8.04316 109.713 8.23547 110.222 8.62089C110.731 9.0055 111.073 9.51449 111.247 10.1479C111.446 9.4523 111.849 8.92776 112.457 8.57425C113.065 8.22074 113.835 8.04316 114.767 8.04316C115.573 8.04316 116.29 8.21746 116.918 8.56443V8.56607Z" fill="#12C295"/>
<path d="M128.091 4.6644C128.947 5.45325 129.375 6.53015 129.375 7.89592V12.4957C129.375 13.4146 129.173 14.2215 128.77 14.9171C128.366 15.6126 127.795 16.1527 127.056 16.5373C126.317 16.9219 125.464 17.115 124.496 17.115C123.528 17.115 122.673 16.9227 121.935 16.5373C121.196 16.1527 120.625 15.6126 120.222 14.9171C119.818 14.2215 119.616 13.4146 119.616 12.4957V11.1921H123.118V12.2723C123.118 12.7567 123.241 13.1446 123.49 13.4359C123.738 13.728 124.074 13.8737 124.496 13.8737C124.918 13.8737 125.253 13.728 125.502 13.4359C125.749 13.1446 125.874 12.7559 125.874 12.2723V8.3239C125.874 7.81491 125.762 7.42048 125.538 7.14143C125.315 6.86239 124.998 6.72246 124.588 6.72246C124.178 6.72246 123.862 6.86239 123.638 7.14143C123.415 7.42048 123.303 7.81491 123.303 8.3239V8.82634H119.801V7.8951C119.801 7.02605 120 6.25602 120.397 5.58582C120.794 4.91562 121.356 4.39681 122.083 4.03102C122.809 3.66524 123.644 3.48193 124.587 3.48193C126.065 3.48193 127.232 3.87636 128.089 4.6644H128.091Z" fill="#12C295"/>
<path d="M144.352 4.03099C144.967 4.39759 145.441 4.91558 145.777 5.58578C146.112 6.25598 146.279 7.02601 146.279 7.89506V16.8155H142.797V8.13728C142.797 7.69049 142.691 7.3427 142.48 7.09393C142.269 6.84599 141.971 6.7216 141.586 6.7216C141.202 6.7216 140.922 6.84599 140.711 7.09393C140.5 7.3427 140.394 7.68967 140.394 8.13728V12.4948C140.394 13.4138 140.192 14.2206 139.788 14.9162C139.385 15.6118 138.814 16.1519 138.075 16.5365C137.336 16.9211 136.482 17.1142 135.514 17.1142C134.546 17.1142 133.692 16.9219 132.954 16.5365C132.215 16.1519 131.644 15.6118 131.24 14.9162C130.837 14.2206 130.635 13.4138 130.635 12.4948V8.09964C130.635 7.18068 130.821 6.37055 131.194 5.66925C131.566 4.96796 132.091 4.42787 132.767 4.04899C133.444 3.67011 134.229 3.48108 135.123 3.48108C136.018 3.48108 136.784 3.65784 137.386 4.01216C137.988 4.36568 138.413 4.87794 138.662 5.54896C138.873 4.84112 139.311 4.31985 139.974 3.98434C140.638 3.64883 141.392 3.4819 142.237 3.4819C143.031 3.4819 143.736 3.6652 144.351 4.03099H144.352ZM136.894 8.32386C136.894 7.83942 136.77 7.45154 136.522 7.16022C136.273 6.8689 135.938 6.72242 135.516 6.72242C135.094 6.72242 134.755 6.86808 134.501 7.16022C134.247 7.45236 134.12 7.84024 134.12 8.32386V12.2722C134.12 12.7567 134.247 13.1445 134.501 13.4359C134.756 13.728 135.094 13.8737 135.516 13.8737C135.938 13.8737 136.273 13.728 136.522 13.4359C136.77 13.1445 136.894 12.7558 136.894 12.2722V8.32386Z" fill="#12C295"/>
<path d="M150.526 12.2723C150.526 12.7567 150.65 13.1446 150.898 13.4359C151.146 13.7281 151.482 13.8737 151.904 13.8737C152.326 13.8737 152.661 13.7281 152.91 13.4359C153.158 13.1446 153.282 12.7559 153.282 12.2723V11.2298C153.282 10.7453 153.213 10.3263 153.078 9.97282C152.941 9.61931 152.768 9.3239 152.556 9.08822C152.345 8.85255 152.065 8.57923 151.718 8.26909C151.334 7.92131 151.02 7.60789 150.778 7.32885C150.536 7.0498 150.334 6.68975 150.173 6.24867C150.011 5.80842 149.93 5.27734 149.93 4.65624V3.78064H153.432V4.35837C153.432 4.75607 153.534 5.09731 153.74 5.3829C153.944 5.66849 154.264 6.00973 154.699 6.40743C155.146 6.8174 155.506 7.18646 155.779 7.51542C156.052 7.84439 156.288 8.27318 156.487 8.80018C156.686 9.32799 156.785 9.95809 156.785 10.6905V12.4973C156.785 13.4163 156.582 14.2231 156.179 14.9187C155.776 15.6143 155.204 16.1544 154.466 16.539C153.727 16.9236 152.873 17.1167 151.905 17.1167C150.937 17.1167 150.083 16.9244 149.344 16.539C148.606 16.1544 148.034 15.6143 147.631 14.9187C147.228 14.2231 147.025 13.4163 147.025 12.4973V10.8026H150.527V12.2739L150.526 12.2723Z" fill="#12C295"/>
<path d="M55.8678 27.5977C56.5258 28.2188 56.9881 28.8423 57.2557 29.4691C57.5225 30.096 57.6559 30.8627 57.6559 31.7694C57.6559 32.7629 57.457 33.6286 57.0601 34.3676C56.6624 35.1065 56.0978 35.6744 55.3654 36.0713C54.633 36.4682 53.7697 36.667 52.7771 36.667C51.7845 36.667 50.9547 36.4747 50.2166 36.0893C49.4776 35.7047 48.9064 35.1646 48.503 34.469C48.0996 33.7735 47.8975 32.9666 47.8975 32.0476V23.3318H51.399V31.8242C51.399 32.3087 51.5234 32.6966 51.7714 32.9879C52.0193 33.28 52.3548 33.4257 52.7771 33.4257C53.1993 33.4257 53.5496 33.2702 53.7918 32.9601C54.034 32.6499 54.1551 32.2154 54.1551 31.6565C54.1551 30.8496 53.8818 30.1172 53.336 29.4593L55.8687 27.5968L55.8678 27.5977Z" fill="#12C295"/>
<path d="M61.7652 31.825C61.7652 32.3095 61.8896 32.6973 62.1376 32.9887C62.3855 33.2808 62.721 33.4265 63.1433 33.4265C63.5655 33.4265 63.9002 33.2808 64.149 32.9887C64.3969 32.6973 64.5213 32.3086 64.5213 31.825V30.7825C64.5213 30.298 64.4526 29.8791 64.3167 29.5256C64.1801 29.172 64.0066 28.8766 63.7955 28.641C63.5843 28.4053 63.3045 28.132 62.9575 27.8218C62.5729 27.474 62.2595 27.1606 62.0173 26.8816C61.7751 26.6025 61.5729 26.2425 61.4117 25.8014C61.2505 25.3612 61.1695 24.8301 61.1695 24.209V23.3334H64.6711V23.9111C64.6711 24.3088 64.7734 24.65 64.9779 24.9356C65.1825 25.2212 65.5025 25.5625 65.937 25.9602C66.3838 26.3701 66.7439 26.7392 67.0172 27.0682C67.2905 27.3971 67.5262 27.8259 67.725 28.3529C67.9239 28.8807 68.0229 29.5108 68.0229 30.2432V32.0501C68.0229 32.969 67.8208 33.7759 67.4173 34.4714C67.0139 35.167 66.4427 35.7071 65.7038 36.0917C64.9648 36.4763 64.1113 36.6694 63.1433 36.6694C62.1752 36.6694 61.3209 36.4771 60.5828 36.0917C59.8438 35.7071 59.2727 35.167 58.8692 34.4714C58.4658 33.7759 58.2637 32.969 58.2637 32.0501V30.3553H61.7652V31.8267V31.825Z" fill="#12C295"/>
<path d="M82.2431 28.1189C82.87 28.4667 83.3544 28.9544 83.6956 29.5812C84.0369 30.2081 84.2079 30.9315 84.2079 31.7506V36.3692H80.7063V32.253C80.7063 31.8062 80.604 31.4585 80.3995 31.2097C80.1949 30.9617 79.8995 30.8374 79.5149 30.8374C79.1303 30.8374 78.8349 30.9617 78.6303 31.2097C78.4257 31.4585 78.3234 31.8054 78.3234 32.253V34.8414H74.8218V32.253C74.8218 31.8062 74.7196 31.4585 74.5142 31.2097C74.3096 30.9617 74.0142 30.8374 73.6296 30.8374C73.2449 30.8374 72.9495 30.9617 72.745 31.2097C72.5404 31.4585 72.4381 31.8054 72.4381 32.253V36.3692H68.9365V29.0125C68.9365 27.8947 69.1943 26.9078 69.709 26.051C70.2237 25.1943 70.9414 24.5273 71.8604 24.0486C72.7793 23.5707 73.8341 23.3318 75.0264 23.3318H81.6564V26.4046H74.4307C73.785 26.4046 73.2482 26.5756 72.8194 26.9168C72.3914 27.2581 72.2016 27.6779 72.2515 28.1737C72.4626 27.7891 72.9962 27.596 73.853 27.596C74.4732 27.596 75.0387 27.7883 75.5477 28.1737C76.0567 28.5584 76.3979 29.0673 76.5722 29.7007C76.7711 29.0052 77.1745 28.4806 77.7825 28.1271C78.3905 27.7736 79.1605 27.596 80.0918 27.596C80.8986 27.596 81.6155 27.7703 82.2431 28.1173V28.1189Z" fill="#12C295"/>
<path d="M94.1254 30.3447C94.5657 30.9716 94.7866 31.7318 94.7866 32.6262C94.7866 33.9052 94.3398 34.8987 93.4454 35.6057C92.5518 36.3135 91.3096 36.667 89.7204 36.667C88.7646 36.667 87.9169 36.4805 87.1779 36.1081C86.439 35.7358 85.8654 35.2178 85.4554 34.5533C85.0454 33.8889 84.8408 33.1221 84.8408 32.2531V31.5084H88.3236V31.8995C88.3236 32.384 88.4537 32.7596 88.7147 33.0264C88.9758 33.2939 89.3415 33.4265 89.8137 33.4265C90.2859 33.4265 90.6672 33.3021 90.9217 33.0542C91.1762 32.8062 91.3039 32.4462 91.3039 31.974C91.3039 31.564 91.1827 31.2449 90.9405 31.0149C90.6983 30.7858 90.3726 30.6704 89.9626 30.6704H89.1992V27.8211H89.646C90.0183 27.8211 90.3194 27.7032 90.5494 27.4676C90.7793 27.2319 90.8939 26.9217 90.8939 26.5363C90.8939 26.2262 90.8317 25.9308 90.7073 25.6517C90.5829 25.3727 90.3783 25.0773 90.0928 24.7671L92.812 23.0724C93.3832 23.5323 93.7956 24.0315 94.0501 24.5715C94.3046 25.1116 94.4323 25.7483 94.4323 26.4807C94.4323 27.1018 94.2457 27.6631 93.8734 28.1664C93.501 28.6688 93.01 29.0322 92.402 29.2556C93.1099 29.3554 93.6835 29.7179 94.1246 30.3447H94.1254Z" fill="#12C295"/>
<path d="M104.299 30.195C104.665 30.474 104.957 30.8406 105.175 31.294C105.392 31.7473 105.501 32.2342 105.501 32.7563C105.501 33.9731 105.051 34.9289 104.15 35.6245C103.25 36.3201 102.011 36.6679 100.435 36.6679C99.4795 36.6679 98.6317 36.4813 97.8928 36.1089C97.1538 35.7366 96.5802 35.2186 96.1702 34.5541C95.7602 33.8897 95.5557 33.1229 95.5557 32.2539V31.5092H99.0384V31.9004C99.0384 32.3725 99.1718 32.7449 99.4386 33.0182C99.7053 33.2915 100.069 33.4281 100.528 33.4281C100.987 33.4281 101.335 33.3259 101.608 33.1205C101.881 32.9159 102.018 32.6524 102.018 32.3291C102.018 31.9445 101.903 31.6467 101.673 31.4356C101.443 31.2244 101.118 31.1189 100.695 31.1189H100.193V28.2695H100.565C100.888 28.2695 101.142 28.186 101.329 28.0183C101.515 27.8505 101.608 27.6304 101.608 27.3571C101.608 27.0347 101.511 26.7736 101.319 26.5748C101.127 26.3759 100.862 26.2769 100.528 26.2769C100.13 26.2769 99.8166 26.4046 99.5875 26.6591C99.3576 26.9135 99.243 27.2581 99.243 27.6926V27.8227H95.7414V27.2638C95.7414 26.4447 95.9427 25.7147 96.347 25.0756C96.7504 24.4365 97.315 23.9365 98.0417 23.5765C98.7684 23.2164 99.5965 23.0364 100.528 23.0364C101.943 23.0364 103.064 23.3932 103.889 24.1075C104.715 24.8219 105.127 25.7933 105.127 27.0224C105.127 27.6803 104.966 28.2237 104.643 28.6516C104.32 29.0796 103.799 29.443 103.078 29.7408C103.525 29.7662 103.932 29.9176 104.299 30.1974L104.299 30.195Z" fill="#12C295"/>
<path d="M114.667 24.2171C115.524 25.006 115.952 26.0829 115.952 27.4487V32.0484C115.952 32.9674 115.749 33.7742 115.346 34.4698C114.943 35.1654 114.371 35.7054 113.632 36.09C112.894 36.4747 112.04 36.6678 111.072 36.6678C110.104 36.6678 109.25 36.4755 108.511 36.09C107.773 35.7054 107.201 35.1654 106.798 34.4698C106.395 33.7742 106.192 32.9674 106.192 32.0484V30.7448H109.694V31.825C109.694 32.3094 109.818 32.6973 110.066 32.9886C110.314 33.2808 110.65 33.4264 111.072 33.4264C111.494 33.4264 111.829 33.2808 112.078 32.9886C112.326 32.6973 112.45 32.3086 112.45 31.825V27.8766C112.45 27.3676 112.338 26.9732 112.115 26.6942C111.891 26.4151 111.574 26.2752 111.164 26.2752C110.754 26.2752 110.438 26.4151 110.214 26.6942C109.991 26.9732 109.879 27.3676 109.879 27.8766V28.3791H106.377V27.4478C106.377 26.5788 106.576 25.8088 106.973 25.1386C107.37 24.4684 107.932 23.9495 108.659 23.5838C109.385 23.218 110.22 23.0347 111.164 23.0347C112.641 23.0347 113.808 23.4291 114.665 24.2171H114.667Z" fill="#12C295"/>
<path d="M125.61 30.195C125.976 30.474 126.268 30.8406 126.485 31.294C126.702 31.7473 126.811 32.2342 126.811 32.7563C126.811 33.9731 126.361 34.9289 125.461 35.6245C124.561 36.3201 123.322 36.6679 121.746 36.6679C120.789 36.6679 119.942 36.4813 119.203 36.1089C118.464 35.7366 117.891 35.2186 117.481 34.5541C117.071 33.8897 116.866 33.1229 116.866 32.2539V31.5092H120.349V31.9004C120.349 32.3725 120.482 32.7449 120.749 33.0182C121.016 33.2915 121.379 33.4281 121.838 33.4281C122.297 33.4281 122.645 33.3259 122.918 33.1205C123.192 32.9159 123.328 32.6524 123.328 32.3291C123.328 31.9445 123.214 31.6467 122.984 31.4356C122.754 31.2244 122.428 31.1189 122.006 31.1189H121.504V28.2695H121.876C122.198 28.2695 122.453 28.186 122.639 28.0183C122.826 27.8505 122.918 27.6304 122.918 27.3571C122.918 27.0347 122.822 26.7736 122.63 26.5748C122.437 26.3759 122.173 26.2769 121.838 26.2769C121.441 26.2769 121.127 26.4046 120.898 26.6591C120.668 26.9135 120.554 27.2581 120.554 27.6926V27.8227H117.052V27.2638C117.052 26.4447 117.253 25.7147 117.658 25.0756C118.061 24.4365 118.626 23.9365 119.352 23.5765C120.079 23.2164 120.907 23.0364 121.838 23.0364C123.254 23.0364 124.374 23.3932 125.2 24.1075C126.026 24.8219 126.438 25.7933 126.438 27.0224C126.438 27.6803 126.277 28.2237 125.954 28.6516C125.63 29.0796 125.109 29.443 124.389 29.7408C124.836 29.7662 125.242 29.9176 125.609 30.1974L125.61 30.195Z" fill="#12C295"/>
<path d="M134.065 27.8767C134.065 27.3923 133.941 27.0044 133.693 26.7131C133.444 26.4218 133.109 26.2753 132.687 26.2753C132.265 26.2753 131.929 26.4209 131.682 26.7131C131.433 27.0052 131.309 27.3931 131.309 27.8767V36.3692H127.808V27.6533C127.808 26.7344 128.009 25.9275 128.413 25.2319C128.817 24.5364 129.388 23.9963 130.127 23.6117C130.865 23.2271 131.719 23.0339 132.687 23.0339C133.655 23.0339 134.509 23.2262 135.248 23.6117C135.986 23.9963 136.557 24.5364 136.961 25.2319C137.365 25.9275 137.567 26.7344 137.567 27.6533V36.3692H134.065V27.8767Z" fill="#12C295"/>
</svg>
