<svg width="18" height="18" viewBox="0 0 18 18" fill="none" xmlns="http://www.w3.org/2000/svg">
<path d="M5.82178 8.38127H10.6874L8.9999 6.66565C8.74678 6.41252 8.74678 6.01877 8.9999 5.76565C9.25303 5.51252 9.64678 5.51252 9.8999 5.76565L12.628 8.55002C12.8812 8.80315 12.8812 9.1969 12.628 9.45002L9.8999 12.2344C9.7874 12.3469 9.61865 12.4313 9.4499 12.4313C9.28115 12.4313 9.14053 12.375 8.9999 12.2625C8.74678 12.0094 8.74678 11.6156 8.9999 11.3625L10.6874 9.6469H5.82178C5.48428 9.6469 5.20303 9.36565 5.20303 9.02815C5.1749 8.66252 5.45615 8.38127 5.82178 8.38127Z" fill="white"/>
<path d="M9.0001 0.506226C13.697 0.506226 17.522 4.3031 17.522 8.99998C17.522 13.6969 13.697 17.4937 9.0001 17.4937C4.30322 17.4937 0.478224 13.6969 0.478224 8.99998C0.478224 4.3031 4.30322 0.506226 9.0001 0.506226ZM9.0001 16.2562C12.9938 16.2562 16.2563 12.9937 16.2563 8.99998C16.2563 5.00623 12.9938 1.74373 9.0001 1.74373C5.00635 1.74373 1.74385 5.00623 1.74385 8.99998C1.74385 12.9937 5.00635 16.2562 9.0001 16.2562Z" fill="white"/>
</svg>
