<svg width="47" height="62" viewBox="0 0 47 62" fill="none" xmlns="http://www.w3.org/2000/svg">
<path d="M14 32.4088V43.6474C13.9986 44.2785 13.4961 44.7885 12.8805 44.7871C12.679 44.7871 12.4802 44.73 12.3072 44.6227L9.44455 42.8713C8.6002 42.353 8.08405 41.4208 8.08269 40.4134V35.6343C8.08269 34.6269 7.56518 33.6934 6.72082 33.1751L1.36188 29.8729C0.51752 29.3546 1.11401e-05 28.421 1.11401e-05 27.4137V1.93661C-0.00271259 1.30543 0.494369 0.791289 1.11129 0.787109C1.32238 0.787109 1.52939 0.845629 1.70779 0.959882L3.66616 2.21388C4.48464 2.73777 4.98308 3.65737 4.98308 4.64524V23.614C4.98308 24.6214 5.50059 25.5536 6.34495 26.0719L12.6449 29.9481C13.4866 30.4678 14.0014 31.4014 14 32.4074V32.4088Z" fill="#36454F"/>
<path d="M20.641 12.6941L9.68991 5.94994C9.1602 5.62474 8.47525 5.80199 8.15796 6.34493C8.05583 6.52079 8 6.72177 8 6.92694V20.4836C8 21.4927 8.51746 22.4278 9.36174 22.947L15.6502 26.8229C16.4945 27.3421 17.012 28.2773 17.012 29.2864V57.9698C17.012 58.9789 17.5294 59.9127 18.3737 60.4319L20.3046 61.6224C20.8316 61.949 21.5179 61.7746 21.8352 61.2344C21.9401 61.0572 21.9946 60.8534 21.9959 60.6454L22 15.1617C22 14.1512 21.4853 13.2147 20.641 12.6941Z" fill="#36454F"/>
<path d="M33 32.4097V43.6487C33.0027 44.2799 33.5036 44.7899 34.1202 44.7871C34.3216 44.7871 34.5176 44.73 34.6904 44.6241L37.5487 42.8615C38.3926 42.3431 38.9084 41.411 38.9098 40.4035V35.6354C38.9098 34.628 39.427 33.6944 40.2708 33.1761L45.6389 29.8738C46.4828 29.3555 46.9986 28.4219 47 27.4145V1.93664C47.0041 1.30544 46.5073 0.791289 45.8907 0.787109C45.6784 0.787109 45.4715 0.845631 45.2918 0.961281L43.336 2.21532C42.5166 2.73923 42.0198 3.65746 42.0198 4.64676V23.6162C42.0198 24.6236 41.5026 25.5557 40.6587 26.0741L34.3638 29.9504C33.5186 30.4674 33.0014 31.4009 33 32.4097Z" fill="#36454F"/>
<path d="M26.3582 12.6984L37.3029 5.95492C37.8296 5.62556 38.5155 5.79583 38.8367 6.33592C38.9428 6.51595 39 6.72111 39 6.93184V20.4873C39 21.4963 38.4828 22.4313 37.6391 22.9505L31.3515 26.8233C30.5077 27.3424 29.9906 28.2775 29.9906 29.2865V57.9702C29.9906 58.9792 29.4734 59.9128 28.6296 60.432L26.6985 61.6224C26.1718 61.949 25.4859 61.7746 25.1688 61.2345C25.064 61.0572 25.0095 60.8535 25.0082 60.6455L25 15.1659C24.9986 14.1554 25.5144 13.219 26.3582 12.6984Z" fill="#36454F"/>
</svg>
